<svg width="29" height="30" viewBox="0 0 29 30" fill="none" xmlns="http://www.w3.org/2000/svg">
<path fill-rule="evenodd" clip-rule="evenodd" d="M0 2.93204C0 1.313 1.3081 0 2.92857 0H26.0714C27.6919 0 29 1.313 29 2.93204V20.3207C29 21.9397 27.6919 23.2527 26.0714 23.2527H14.8338L7.38641 28.8484C7.08347 29.0761 6.67789 29.1129 6.33889 28.9436C5.99989 28.7743 5.78571 28.4279 5.78571 28.049V23.2527H2.92857C1.3081 23.2527 0 21.9397 0 20.3207V2.93204ZM2.92857 2C2.41604 2 2 2.4142 2 2.93204V20.3207C2 20.8385 2.41604 21.2527 2.92857 21.2527H7.78571V26.0468L14.1662 21.2527H26.0714C26.584 21.2527 27 20.8385 27 20.3207V2.93204C27 2.4142 26.584 2 26.0714 2H2.92857ZM7.71429 7.72826H21.2857V9.72826H7.71429V7.72826ZM7.71429 13.5245H17.4286V15.5245H7.71429V13.5245Z" fill="#EAF0FF"/>
</svg>
