<svg width="20" height="21" viewBox="0 0 20 21" fill="none" xmlns="http://www.w3.org/2000/svg">
<path d="M5.4343 9.22058L6.42424 9.362L6.42424 9.362L5.4343 9.22058ZM5.42089 9.31439L4.43094 9.17296L4.43094 9.17296L5.42089 9.31439ZM14.5657 9.22058L15.5556 9.07916L15.5556 9.07916L14.5657 9.22058ZM14.5791 9.31439L13.5891 9.45581L13.5891 9.45581L14.5791 9.31439ZM12.6667 17.2608V18.2608C13.219 18.2608 13.6667 17.8131 13.6667 17.2608H12.6667ZM7.33333 17.2608H6.33333C6.33333 17.8131 6.78105 18.2608 7.33333 18.2608V17.2608ZM6.34065 12.798L7.13144 12.1859L6.34065 12.798ZM13.6593 12.798L12.8685 12.1859L13.6593 12.798ZM8 20.9274H12V18.9274H8V20.9274ZM4.44435 9.07915L4.43094 9.17296L6.41084 9.45581L6.42424 9.362L4.44435 9.07915ZM9.99998 4.26078C7.20715 4.26078 4.83931 6.31439 4.44435 9.07915L6.42424 9.362C6.67845 7.58253 8.20245 6.26078 9.99998 6.26078V4.26078ZM15.5556 9.07916C15.1606 6.31439 12.7928 4.26078 9.99998 4.26078V6.26078C11.7975 6.26078 13.3215 7.58254 13.5757 9.362L15.5556 9.07916ZM15.569 9.17297L15.5556 9.07916L13.5757 9.362L13.5891 9.45581L15.569 9.17297ZM14.4501 13.41C15.3423 12.2574 15.7946 10.7523 15.569 9.17297L13.5891 9.45581C13.7347 10.4752 13.445 11.4411 12.8685 12.1859L14.4501 13.41ZM11.6667 15.1292V17.2608H13.6667V15.1292H11.6667ZM12.6667 16.2608H7.33333V18.2608H12.6667V16.2608ZM8.33333 17.2608V15.1292H6.33333V17.2608H8.33333ZM4.43094 9.17296C4.20533 10.7523 4.65767 12.2574 5.54985 13.4101L7.13144 12.1859C6.55498 11.4411 6.26522 10.4752 6.41084 9.45581L4.43094 9.17296ZM8.33333 15.1292C8.33333 13.9143 7.689 12.9063 7.13144 12.1859L5.54985 13.4101C6.05173 14.0585 6.33333 14.6133 6.33333 15.1292H8.33333ZM12.8685 12.1859C12.311 12.9062 11.6667 13.9142 11.6667 15.1292H13.6667C13.6667 14.6133 13.9483 14.0585 14.4501 13.41L12.8685 12.1859ZM9 0.594116V3.26078H11V0.594116H9ZM0 11.5941H2.66667V9.59412H0V11.5941ZM17.3333 11.5941H20V9.59412H17.3333V11.5941ZM4.70711 5.22034L2.70711 3.22034L1.29289 4.63456L3.29289 6.63456L4.70711 5.22034ZM16.7071 6.63456L18.7071 4.63456L17.2929 3.22034L15.2929 5.22034L16.7071 6.63456Z" fill="#8996B8" fill-opacity="0.6"/>
</svg>
