<svg width="30" height="28" viewBox="0 0 30 28" fill="none" xmlns="http://www.w3.org/2000/svg">
<path d="M15 27L14.2652 27.6783C14.4545 27.8834 14.7209 28 15 28C15.2791 28 15.5455 27.8834 15.7348 27.6783L15 27ZM3.07107 14.077L2.33626 14.7553L2.33626 14.7553L3.07107 14.077ZM13.0711 3.24366L12.3363 3.92194L13.0711 3.24366ZM15 5.33333L14.2652 6.01161C14.4545 6.2167 14.7209 6.33333 15 6.33333C15.2791 6.33333 15.5455 6.2167 15.7348 6.01161L15 5.33333ZM16.9289 3.24366L16.1941 2.56538V2.56538L16.9289 3.24366ZM15.7348 26.3217L3.80587 13.3987L2.33626 14.7553L14.2652 27.6783L15.7348 26.3217ZM26.1941 13.3987L14.2652 26.3217L15.7348 27.6783L27.6637 14.7553L26.1941 13.3987ZM12.3363 3.92194L14.2652 6.01161L15.7348 4.65505L13.8059 2.56538L12.3363 3.92194ZM15.7348 6.01161L17.6637 3.92194L16.1941 2.56538L14.2652 4.65505L15.7348 6.01161ZM21.9289 0C19.7613 0 17.7004 0.933549 16.1941 2.56538L17.6637 3.92194C18.8096 2.68058 20.3458 2 21.9289 2V0ZM28 8.66032C28 10.4514 27.3425 12.1547 26.1941 13.3987L27.6637 14.7553C29.1676 13.1261 30 10.9325 30 8.66032H28ZM30 8.66032C30 3.95423 26.4603 0 21.9289 0V2C25.208 2 28 4.90506 28 8.66032H30ZM8.07107 2C9.65421 2 11.1904 2.68059 12.3363 3.92194L13.8059 2.56538C12.2996 0.93355 10.2387 0 8.07107 0V2ZM2 8.66032C2 4.90506 4.79197 2 8.07107 2V0C3.53968 0 0 3.95423 0 8.66032H2ZM3.80587 13.3987C2.65752 12.1547 2 10.4514 2 8.66032H0C0 10.9325 0.832444 13.1261 2.33626 14.7553L3.80587 13.3987Z" fill="#EAF0FF"/>
</svg>
