<svg width="38" height="34" viewBox="0 0 38 34" fill="none" xmlns="http://www.w3.org/2000/svg">
<path fill-rule="evenodd" clip-rule="evenodd" d="M10.4902 2.10853C6.07866 2.10853 2.42959 5.87643 2.42959 10.6164C2.42959 12.8864 3.2888 15.0553 4.80556 16.6479L19.2566 31.8214L33.7076 16.6479C35.2243 15.0553 36.0836 12.8864 36.0836 10.6164C36.0836 5.87643 32.4345 2.10853 28.023 2.10853C25.8995 2.10853 23.8537 2.99385 22.3384 4.58498L19.8979 7.14746C19.7307 7.32297 19.4989 7.42231 19.2566 7.42231C19.0142 7.42231 18.7824 7.32297 18.6153 7.14746L16.1748 4.58498C14.6594 2.99385 12.6136 2.10853 10.4902 2.10853ZM0.658325 10.6164C0.658325 4.98062 5.01997 0.337265 10.4902 0.337265C13.1121 0.337265 15.6173 1.43129 17.4574 3.36342L19.2566 5.25252L21.0557 3.36342C22.8958 1.43129 25.4011 0.337265 28.023 0.337265C33.4932 0.337265 37.8548 4.98062 37.8548 10.6164C37.8548 13.3291 36.8289 15.9388 34.9902 17.8694L19.8979 33.7164C19.7307 33.8919 19.4989 33.9912 19.2566 33.9912C19.0142 33.9912 18.7824 33.8919 18.6153 33.7164L3.52292 17.8694C1.6842 15.9388 0.658325 13.3291 0.658325 10.6164Z" fill="#EAF0FF"/>
</svg>
