<svg width="21" height="22" viewBox="0 0 21 22" fill="none" xmlns="http://www.w3.org/2000/svg">
<path d="M6.50863 8.33332V7.33332C5.95634 7.33332 5.50863 7.78104 5.50863 8.33332H6.50863ZM6.50863 9.66666L7.21573 10.3738L7.50863 10.0809V9.66666H6.50863ZM4.23248 10.0572L3.52538 10.7643L3.52538 10.7643L4.23248 10.0572ZM9.17529 18.3333H10.1753V17.9191L9.8824 17.6262L9.17529 18.3333ZM7.84196 17H6.84196V17.4142L7.13485 17.7071L7.84196 17ZM7.84196 15H8.84196V14.5858L8.54907 14.2929L7.84196 15ZM6.50863 13.6667H5.50863V14.0809L5.80152 14.3738L6.50863 13.6667ZM6.50863 12.3333V11.3333C5.95634 11.3333 5.50863 11.781 5.50863 12.3333H6.50863ZM12.1753 1.66666V4.33332H14.1753V1.66666H12.1753ZM11.842 4.66666H10.5086V6.66666H11.842V4.66666ZM7.84196 7.33332H6.50863V9.33332H7.84196V7.33332ZM5.50863 8.33332V9.66666H7.50863V8.33332H5.50863ZM5.80152 8.95955L5.41099 9.35007L6.82521 10.7643L7.21573 10.3738L5.80152 8.95955ZM4.93959 9.35007L2.54907 6.95955L1.13485 8.37376L3.52538 10.7643L4.93959 9.35007ZM8.17529 6.99999C8.17529 7.18408 8.02605 7.33332 7.84196 7.33332V9.33332C9.13062 9.33332 10.1753 8.28865 10.1753 6.99999H8.17529ZM10.5086 4.66666C9.21996 4.66666 8.17529 5.71133 8.17529 6.99999H10.1753C10.1753 6.81589 10.3245 6.66666 10.5086 6.66666V4.66666ZM5.41099 9.35007C5.28082 9.48025 5.06977 9.48025 4.93959 9.35007L3.52538 10.7643C4.4366 11.6755 5.91398 11.6755 6.82521 10.7643L5.41099 9.35007ZM12.1753 4.33332C12.1753 4.51742 12.0261 4.66666 11.842 4.66666V6.66666C13.1306 6.66666 14.1753 5.62199 14.1753 4.33332H12.1753ZM10.1753 20.3333V18.3333H8.17529V20.3333H10.1753ZM9.8824 17.6262L8.54907 16.2929L7.13485 17.7071L8.46819 19.0404L9.8824 17.6262ZM8.84196 17V15H6.84196V17H8.84196ZM8.54907 14.2929L7.21573 12.9595L5.80152 14.3738L7.13485 15.7071L8.54907 14.2929ZM7.50863 13.6667V12.3333H5.50863V13.6667H7.50863ZM6.50863 13.3333H11.842V11.3333H6.50863V13.3333ZM12.1753 13.6667V14.5555H14.1753V13.6667H12.1753ZM14.9531 17.3333H18.5086V15.3333H14.9531V17.3333ZM13.5086 15.8889C13.5086 16.6866 14.1553 17.3333 14.9531 17.3333V15.3333C15.2599 15.3333 15.5086 15.582 15.5086 15.8889H13.5086ZM13.6197 16C13.5584 16 13.5086 15.9502 13.5086 15.8889H15.5086C15.5086 14.8457 14.6629 14 13.6197 14V16ZM12.1753 14.5555C12.1753 15.3533 12.822 16 13.6197 16V14C13.9266 14 14.1753 14.2487 14.1753 14.5555H12.1753ZM11.842 13.3333C12.0261 13.3333 12.1753 13.4826 12.1753 13.6667H14.1753C14.1753 12.378 13.1306 11.3333 11.842 11.3333V13.3333ZM10.5086 19.3333C5.90625 19.3333 2.17529 15.6024 2.17529 11H0.175293C0.175293 16.7069 4.80168 21.3333 10.5086 21.3333V19.3333ZM18.842 11C18.842 15.6024 15.111 19.3333 10.5086 19.3333V21.3333C16.2156 21.3333 20.842 16.7069 20.842 11H18.842ZM10.5086 2.66666C15.111 2.66666 18.842 6.39762 18.842 11H20.842C20.842 5.29305 16.2156 0.666656 10.5086 0.666656V2.66666ZM10.5086 0.666656C4.80168 0.666656 0.175293 5.29305 0.175293 11H2.17529C2.17529 6.39762 5.90625 2.66666 10.5086 2.66666V0.666656Z" fill="#8996B8" fill-opacity="0.6"/>
</svg>
