<svg width="20" height="27" viewBox="0 0 20 27" fill="none" xmlns="http://www.w3.org/2000/svg">
<path fill-rule="evenodd" clip-rule="evenodd" d="M10 2C7.56216 2 5.6 3.958 5.6 6.35714C5.6 8.75628 7.56216 10.7143 10 10.7143C12.4378 10.7143 14.4 8.75628 14.4 6.35714C14.4 3.958 12.4378 2 10 2ZM3.6 6.35714C3.6 2.83843 6.47264 0 10 0C13.5274 0 16.4 2.83843 16.4 6.35714C16.4 9.87585 13.5274 12.7143 10 12.7143C6.47264 12.7143 3.6 9.87585 3.6 6.35714ZM6.4 18.0714C3.96281 18.0714 2 20.0299 2 22.4312V25H18V22.4312C18 20.0299 16.0372 18.0714 13.6 18.0714H6.4ZM0 22.4312C0 18.9112 2.87251 16.0714 6.4 16.0714H13.6C17.1275 16.0714 20 18.9112 20 22.4312V27H0V22.4312Z" fill="#EAF0FF"/>
</svg>
