<svg width="30" height="30" viewBox="0 0 30 30" fill="none" xmlns="http://www.w3.org/2000/svg">
<path fill-rule="evenodd" clip-rule="evenodd" d="M0 13.1193C0 5.87373 5.87373 0 13.1193 0C20.365 0 26.2387 5.87373 26.2387 13.1193C26.2387 16.3905 25.0415 19.382 23.0613 21.6797L30 28.6184L28.6184 30L21.6797 23.0613C19.382 25.0415 16.3905 26.2387 13.1193 26.2387C5.87373 26.2387 0 20.365 0 13.1193ZM13.1193 1.95395C6.95287 1.95395 1.95395 6.95287 1.95395 13.1193C1.95395 19.2858 6.95287 24.2847 13.1193 24.2847C19.2858 24.2847 24.2847 19.2858 24.2847 13.1193C24.2847 6.95287 19.2858 1.95395 13.1193 1.95395Z" fill="#D9814E"/>
</svg>
